<svg xmlns="http://www.w3.org/2000/svg" xmlns:xlink="http://www.w3.org/1999/xlink" width="500" height="325.6500"><rect width="800" height="521.04" rx="0" ry="0" class="a"/><svg height="521.04" viewBox="0 0 500 " width="800" xmlns="http://www.w3.org/2000/svg" xmlns:xlink="http://www.w3.org/1999/xlink"><style>@keyframes f{0%{transform:translateX(0)}1.4%{transform:translateX(-80px)}1.8%{transform:translateX(-160px)}1.9%{transform:translateX(-400px)}18.1%{transform:translateX(-480px)}19.3%{transform:translateX(-560px)}29.4%{transform:translateX(-640px)}30.1%{transform:translateX(-960px)}38%{transform:translateX(-1040px)}39.2%{transform:translateX(-1120px)}40.4%{transform:translateX(-1200px)}42.7%{transform:translateX(-1280px)}45.5%{transform:translateX(-1360px)}46.7%{transform:translateX(-1440px)}49.4%{transform:translateX(-1520px)}49.5%{transform:translateX(-1840px)}49.6%{transform:translateX(-2000px)}99.3%{transform:translateX(-2080px)}99.4%{transform:translateX(-2160px)}99.6%{transform:translateX(-2240px)}99.8%{transform:translateX(-2320px)}to{transform:translateX(-2480px)}}.a{fill:#282d35}.c{fill:#b9c0cb;white-space:pre}</style><g font-family="Monaco,Consolas,Menlo,'Bitstream Vera Sans Mono','Powerline Symbols',monospace" font-size="1.67"><defs><symbol id="1"><text y="1.67" class="c">Restored</text><text x="9.018" y="1.67" class="c">session:</text><text x="18.036" y="1.67" class="c">Sun</text><text x="22.044" y="1.67" class="c">16</text><text x="25.05" y="1.67" class="c">Jun</text><text x="29.058" y="1.67" class="c">2024</text><text x="34.068" y="1.67" class="c">09:11:03</text><text x="43.086" y="1.67" class="c">BST</text></symbol><symbol id="2"><text y="1.67" class="c">barry@Barrys-MBP</text><text x="17.034" y="1.67" class="c">asciinema-scripts</text><text x="35.07" y="1.67" class="c">%</text></symbol><symbol id="3"><text y="1.67" class="c">barry@Barrys-MBP</text><text x="17.034" y="1.67" class="c">asciinema-scripts</text><text x="35.07" y="1.67" class="c">%</text><text x="37.074" y="1.67" class="c">l</text></symbol><symbol id="4"><text y="1.67" class="c">barry@Barrys-MBP</text><text x="17.034" y="1.67" class="c">asciinema-scripts</text><text x="35.07" y="1.67" class="c">%</text><text x="37.074" y="1.67" class="c">ls</text></symbol><symbol id="5"><text y="1.67" class="c">Dockerfile</text><text x="16.032" y="1.67" class="c">README.md</text><text x="32.064" y="1.67" class="c">trim_pauses.py</text></symbol><symbol id="6"><text y="1.67" class="c">LICENSE</text><text x="16.032" y="1.67" class="c">my.cast</text><text x="32.064" y="1.67" class="c">venv</text></symbol><symbol id="7"><text y="1.67" class="c">barry@Barrys-MBP</text><text x="17.034" y="1.67" class="c">asciinema-scripts</text><text x="35.07" y="1.67" class="c">%</text><text x="37.074" y="1.67" class="c">ls</text><text x="40.08" y="1.67" class="c">-al</text></symbol><symbol id="8"><text y="1.67" class="c">total</text><text x="6.012" y="1.67" class="c">56</text></symbol><symbol id="9"><text y="1.67" class="c">drwxr-xr-x</text><text x="12.024" y="1.67" class="c">11</text><text x="15.03" y="1.67" class="c">barry</text><text x="22.044" y="1.67" class="c">staff</text><text x="30.06" y="1.67" class="c">352</text><text x="34.068" y="1.67" class="c">16</text><text x="37.074" y="1.67" class="c">Jun</text><text x="41.082" y="1.67" class="c">10:45</text><text x="47.094" y="1.67" class="c">.</text></symbol><symbol id="10"><text y="1.67" class="c">drwxr-xr-x</text><text x="12.024" y="1.67" class="c">19</text><text x="15.03" y="1.67" class="c">barry</text><text x="22.044" y="1.67" class="c">staff</text><text x="30.06" y="1.67" class="c">608</text><text x="34.068" y="1.67" class="c">16</text><text x="37.074" y="1.67" class="c">Jun</text><text x="41.082" y="1.67" class="c">08:29</text><text x="47.094" y="1.67" class="c">..</text></symbol><symbol id="11"><text y="1.67" class="c">drwxr-xr-x</text><text x="12.024" y="1.67" class="c">13</text><text x="15.03" y="1.67" class="c">barry</text><text x="22.044" y="1.67" class="c">staff</text><text x="30.06" y="1.67" class="c">416</text><text x="34.068" y="1.67" class="c">16</text><text x="37.074" y="1.67" class="c">Jun</text><text x="41.082" y="1.67" class="c">10:37</text><text x="47.094" y="1.67" class="c">.git</text></symbol><symbol id="12"><text y="1.67" class="c">-rw-r--r--</text><text x="13.026" y="1.67" class="c">1</text><text x="15.03" y="1.67" class="c">barry</text><text x="22.044" y="1.67" class="c">staff</text><text x="31.062" y="1.67" class="c">66</text><text x="34.068" y="1.67" class="c">16</text><text x="37.074" y="1.67" class="c">Jun</text><text x="41.082" y="1.67" class="c">08:29</text><text x="47.094" y="1.67" class="c">.gitattributes</text></symbol><symbol id="13"><text y="1.67" class="c">-rw-r--r--</text><text x="13.026" y="1.67" class="c">1</text><text x="15.03" y="1.67" class="c">barry</text><text x="22.044" y="1.67" class="c">staff</text><text x="31.062" y="1.67" class="c">14</text><text x="34.068" y="1.67" class="c">16</text><text x="37.074" y="1.67" class="c">Jun</text><text x="41.082" y="1.67" class="c">10:16</text><text x="47.094" y="1.67" class="c">.gitignore</text></symbol><symbol id="14"><text y="1.67" class="c">-rw-r--r--</text><text x="13.026" y="1.67" class="c">1</text><text x="15.03" y="1.67" class="c">barry</text><text x="22.044" y="1.67" class="c">staff</text><text x="30.06" y="1.67" class="c">269</text><text x="34.068" y="1.67" class="c">16</text><text x="37.074" y="1.67" class="c">Jun</text><text x="41.082" y="1.67" class="c">10:44</text><text x="47.094" y="1.67" class="c">Dockerfile</text></symbol><symbol id="15"><text y="1.67" class="c">-rw-r--r--</text><text x="13.026" y="1.67" class="c">1</text><text x="15.03" y="1.67" class="c">barry</text><text x="22.044" y="1.67" class="c">staff</text><text x="29.058" y="1.67" class="c">1066</text><text x="34.068" y="1.67" class="c">16</text><text x="37.074" y="1.67" class="c">Jun</text><text x="41.082" y="1.67" class="c">08:29</text><text x="47.094" y="1.67" class="c">LICENSE</text></symbol><symbol id="16"><text y="1.67" class="c">-rw-r--r--</text><text x="13.026" y="1.67" class="c">1</text><text x="15.03" y="1.67" class="c">barry</text><text x="22.044" y="1.67" class="c">staff</text><text x="29.058" y="1.67" class="c">2357</text><text x="34.068" y="1.67" class="c">16</text><text x="37.074" y="1.67" class="c">Jun</text><text x="41.082" y="1.67" class="c">10:32</text><text x="47.094" y="1.67" class="c">README.md</text></symbol><symbol id="17"><text y="1.67" class="c">-rw-r--r--</text><text x="13.026" y="1.67" class="c">1</text><text x="15.03" y="1.67" class="c">barry</text><text x="22.044" y="1.67" class="c">staff</text><text x="29.058" y="1.67" class="c">1316</text><text x="34.068" y="1.67" class="c">16</text><text x="37.074" y="1.67" class="c">Jun</text><text x="41.082" y="1.67" class="c">10:45</text><text x="47.094" y="1.67" class="c">my.cast</text></symbol><symbol id="18"><text y="1.67" class="c">-rw-r--r--</text><text x="13.026" y="1.67" class="c">1</text><text x="15.03" y="1.67" class="c">barry</text><text x="22.044" y="1.67" class="c">staff</text><text x="29.058" y="1.67" class="c">3048</text><text x="34.068" y="1.67" class="c">16</text><text x="37.074" y="1.67" class="c">Jun</text><text x="41.082" y="1.67" class="c">10:26</text><text x="47.094" y="1.67" class="c">trim_pauses.py</text></symbol><symbol id="19"><text y="1.67" class="c">drwxr-xr-x</text><text x="13.026" y="1.67" class="c">6</text><text x="15.03" y="1.67" class="c">barry</text><text x="22.044" y="1.67" class="c">staff</text><text x="30.06" y="1.67" class="c">192</text><text x="34.068" y="1.67" class="c">16</text><text x="37.074" y="1.67" class="c">Jun</text><text x="41.082" y="1.67" class="c">08:40</text><text x="47.094" y="1.67" class="c">venv</text></symbol><symbol id="20"><text y="1.67" class="c">Saving</text><text x="7.014" y="1.67" class="c">session...</text></symbol><symbol id="21"><text y="1.67" class="c">...saving</text><text x="10.02" y="1.67" class="c">history...truncating</text><text x="31.062" y="1.67" class="c">history</text><text x="39.078" y="1.67" class="c">files...</text></symbol><symbol id="a"><path fill="transparent" d="M0 0h80v24H0z"/></symbol><symbol id="b"><path fill="#6f7683" d="M0 0h1.102v2.171H0z"/></symbol></defs><path class="a" d="M0 0h80v52.104H0z"/><g style="animation-duration:8.419733s;animation-iteration-count:infinite;animation-name:f;animation-timing-function:steps(1,end)"><svg width="2560"><svg><use xlink:href="#a"/><use xlink:href="#b" x="-.004"/></svg><svg x="80"><use xlink:href="#a"/><use xlink:href="#b" x="-.004" y="2.146"/><use xlink:href="#1"/></svg><svg x="160"><use xlink:href="#a"/><use xlink:href="#b" x="-.004" y="2.146"/><use xlink:href="#1"/></svg><svg x="240"><use xlink:href="#a"/><use xlink:href="#b" x="-.004" y="2.146"/><use xlink:href="#1"/></svg><svg x="320"><use xlink:href="#a"/><use xlink:href="#b" x="36.996" y="2.146"/><use xlink:href="#1"/><use xlink:href="#2" y="2.171"/></svg><svg x="400"><use xlink:href="#a"/><use xlink:href="#b" x="36.996" y="2.146"/><use xlink:href="#1"/><use xlink:href="#2" y="2.171"/></svg><svg x="480"><use xlink:href="#a"/><use xlink:href="#b" x="37.996" y="2.146"/><use xlink:href="#1"/><use xlink:href="#3" y="2.171"/></svg><svg x="560"><use xlink:href="#a"/><use xlink:href="#b" x="38.996" y="2.146"/><use xlink:href="#1"/><use xlink:href="#4" y="2.171"/></svg><svg x="640"><use xlink:href="#a"/><use xlink:href="#b" x="-.004" y="4.317"/><use xlink:href="#1"/><use xlink:href="#4" y="2.171"/></svg><svg x="720"><use xlink:href="#a"/><use xlink:href="#b" x="-.004" y="8.659"/><use xlink:href="#1"/><use xlink:href="#4" y="2.171"/><use xlink:href="#5" y="4.342"/><use xlink:href="#6" y="6.513"/></svg><svg x="800"><use xlink:href="#a"/><use xlink:href="#b" x="-.004" y="8.659"/><use xlink:href="#1"/><use xlink:href="#4" y="2.171"/><use xlink:href="#5" y="4.342"/><use xlink:href="#6" y="6.513"/></svg><svg x="880"><use xlink:href="#a"/><use xlink:href="#b" x="-.004" y="8.659"/><use xlink:href="#1"/><use xlink:href="#4" y="2.171"/><use xlink:href="#5" y="4.342"/><use xlink:href="#6" y="6.513"/></svg><svg x="960"><use xlink:href="#a"/><use xlink:href="#b" x="36.996" y="8.659"/><use xlink:href="#1"/><use xlink:href="#4" y="2.171"/><use xlink:href="#5" y="4.342"/><use xlink:href="#6" y="6.513"/><use xlink:href="#2" y="8.684"/></svg><svg x="1040"><use xlink:href="#a"/><use xlink:href="#b" x="37.996" y="8.659"/><use xlink:href="#1"/><use xlink:href="#4" y="2.171"/><use xlink:href="#5" y="4.342"/><use xlink:href="#6" y="6.513"/><use xlink:href="#3" y="8.684"/></svg><svg x="1120"><use xlink:href="#a"/><use xlink:href="#b" x="38.996" y="8.659"/><use xlink:href="#1"/><use xlink:href="#4" y="2.171"/><use xlink:href="#5" y="4.342"/><use xlink:href="#6" y="6.513"/><use xlink:href="#4" y="8.684"/></svg><svg x="1200"><use xlink:href="#a"/><use xlink:href="#b" x="39.996" y="8.659"/><use xlink:href="#1"/><use xlink:href="#4" y="2.171"/><use xlink:href="#5" y="4.342"/><use xlink:href="#6" y="6.513"/><use xlink:href="#4" y="8.684"/></svg><svg x="1280"><use xlink:href="#a"/><use xlink:href="#b" x="40.996" y="8.659"/><use xlink:href="#1"/><use xlink:href="#4" y="2.171"/><use xlink:href="#5" y="4.342"/><use xlink:href="#6" y="6.513"/><text y="10.354" class="c">barry@Barrys-MBP</text><text x="17.034" y="10.354" class="c">asciinema-scripts</text><text x="35.07" y="10.354" class="c">%</text><text x="37.074" y="10.354" class="c">ls</text><text x="40.08" y="10.354" class="c">-</text></svg><svg x="1360"><use xlink:href="#a"/><use xlink:href="#b" x="41.996" y="8.659"/><use xlink:href="#1"/><use xlink:href="#4" y="2.171"/><use xlink:href="#5" y="4.342"/><use xlink:href="#6" y="6.513"/><text y="10.354" class="c">barry@Barrys-MBP</text><text x="17.034" y="10.354" class="c">asciinema-scripts</text><text x="35.07" y="10.354" class="c">%</text><text x="37.074" y="10.354" class="c">ls</text><text x="40.08" y="10.354" class="c">-a</text></svg><svg x="1440"><use xlink:href="#a"/><use xlink:href="#b" x="42.996" y="8.659"/><use xlink:href="#1"/><use xlink:href="#4" y="2.171"/><use xlink:href="#5" y="4.342"/><use xlink:href="#6" y="6.513"/><use xlink:href="#7" y="8.684"/></svg><svg x="1520"><use xlink:href="#a"/><use xlink:href="#b" x="-.004" y="10.83"/><use xlink:href="#1"/><use xlink:href="#4" y="2.171"/><use xlink:href="#5" y="4.342"/><use xlink:href="#6" y="6.513"/><use xlink:href="#7" y="8.684"/></svg><svg x="1600"><use xlink:href="#a"/><use xlink:href="#b" x="-.004" y="13.001"/><use xlink:href="#1"/><use xlink:href="#4" y="2.171"/><use xlink:href="#5" y="4.342"/><use xlink:href="#6" y="6.513"/><use xlink:href="#7" y="8.684"/><use xlink:href="#8" y="10.855"/></svg><svg x="1680"><use xlink:href="#a"/><use xlink:href="#b" x="-.004" y="19.514"/><use xlink:href="#1"/><use xlink:href="#4" y="2.171"/><use xlink:href="#5" y="4.342"/><use xlink:href="#6" y="6.513"/><use xlink:href="#7" y="8.684"/><use xlink:href="#8" y="10.855"/><use xlink:href="#9" y="13.026"/><use xlink:href="#10" y="15.197"/><use xlink:href="#11" y="17.368"/></svg><svg x="1760"><use xlink:href="#a"/><use xlink:href="#b" x="-.004" y="36.882"/><use xlink:href="#1"/><use xlink:href="#4" y="2.171"/><use xlink:href="#5" y="4.342"/><use xlink:href="#6" y="6.513"/><use xlink:href="#7" y="8.684"/><use xlink:href="#8" y="10.855"/><use xlink:href="#9" y="13.026"/><use xlink:href="#10" y="15.197"/><use xlink:href="#11" y="17.368"/><use xlink:href="#12" y="19.539"/><use xlink:href="#13" y="21.71"/><use xlink:href="#14" y="23.881"/><use xlink:href="#15" y="26.052"/><use xlink:href="#16" y="28.223"/><use xlink:href="#17" y="30.394"/><use xlink:href="#18" y="32.565"/><use xlink:href="#19" y="34.736"/></svg><svg x="1840"><use xlink:href="#a"/><use xlink:href="#b" x="-.004" y="36.882"/><use xlink:href="#1"/><use xlink:href="#4" y="2.171"/><use xlink:href="#5" y="4.342"/><use xlink:href="#6" y="6.513"/><use xlink:href="#7" y="8.684"/><use xlink:href="#8" y="10.855"/><use xlink:href="#9" y="13.026"/><use xlink:href="#10" y="15.197"/><use xlink:href="#11" y="17.368"/><use xlink:href="#12" y="19.539"/><use xlink:href="#13" y="21.71"/><use xlink:href="#14" y="23.881"/><use xlink:href="#15" y="26.052"/><use xlink:href="#16" y="28.223"/><use xlink:href="#17" y="30.394"/><use xlink:href="#18" y="32.565"/><use xlink:href="#19" y="34.736"/></svg><svg x="1920"><use xlink:href="#a"/><use xlink:href="#b" x="-.004" y="36.882"/><use xlink:href="#1"/><use xlink:href="#4" y="2.171"/><use xlink:href="#5" y="4.342"/><use xlink:href="#6" y="6.513"/><use xlink:href="#7" y="8.684"/><use xlink:href="#8" y="10.855"/><use xlink:href="#9" y="13.026"/><use xlink:href="#10" y="15.197"/><use xlink:href="#11" y="17.368"/><use xlink:href="#12" y="19.539"/><use xlink:href="#13" y="21.71"/><use xlink:href="#14" y="23.881"/><use xlink:href="#15" y="26.052"/><use xlink:href="#16" y="28.223"/><use xlink:href="#17" y="30.394"/><use xlink:href="#18" y="32.565"/><use xlink:href="#19" y="34.736"/></svg><svg x="2000"><use xlink:href="#a"/><use xlink:href="#b" x="36.996" y="36.882"/><use xlink:href="#1"/><use xlink:href="#4" y="2.171"/><use xlink:href="#5" y="4.342"/><use xlink:href="#6" y="6.513"/><use xlink:href="#7" y="8.684"/><use xlink:href="#8" y="10.855"/><use xlink:href="#9" y="13.026"/><use xlink:href="#10" y="15.197"/><use xlink:href="#11" y="17.368"/><use xlink:href="#12" y="19.539"/><use xlink:href="#13" y="21.71"/><use xlink:href="#14" y="23.881"/><use xlink:href="#15" y="26.052"/><use xlink:href="#16" y="28.223"/><use xlink:href="#17" y="30.394"/><use xlink:href="#18" y="32.565"/><use xlink:href="#19" y="34.736"/><use xlink:href="#2" y="36.907"/></svg><svg x="2080"><use xlink:href="#a"/><use xlink:href="#b" x="-.004" y="39.053"/><use xlink:href="#1"/><use xlink:href="#4" y="2.171"/><use xlink:href="#5" y="4.342"/><use xlink:href="#6" y="6.513"/><use xlink:href="#7" y="8.684"/><use xlink:href="#8" y="10.855"/><use xlink:href="#9" y="13.026"/><use xlink:href="#10" y="15.197"/><use xlink:href="#11" y="17.368"/><use xlink:href="#12" y="19.539"/><use xlink:href="#13" y="21.71"/><use xlink:href="#14" y="23.881"/><use xlink:href="#15" y="26.052"/><use xlink:href="#16" y="28.223"/><use xlink:href="#17" y="30.394"/><use xlink:href="#18" y="32.565"/><use xlink:href="#19" y="34.736"/><use xlink:href="#2" y="36.907"/></svg><svg x="2160"><use xlink:href="#a"/><use xlink:href="#b" x="16.996" y="41.224"/><use xlink:href="#1"/><use xlink:href="#4" y="2.171"/><use xlink:href="#5" y="4.342"/><use xlink:href="#6" y="6.513"/><use xlink:href="#7" y="8.684"/><use xlink:href="#8" y="10.855"/><use xlink:href="#9" y="13.026"/><use xlink:href="#10" y="15.197"/><use xlink:href="#11" y="17.368"/><use xlink:href="#12" y="19.539"/><use xlink:href="#13" y="21.71"/><use xlink:href="#14" y="23.881"/><use xlink:href="#15" y="26.052"/><use xlink:href="#16" y="28.223"/><use xlink:href="#17" y="30.394"/><use xlink:href="#18" y="32.565"/><use xlink:href="#19" y="34.736"/><use xlink:href="#2" y="36.907"/><use xlink:href="#20" y="41.249"/></svg><svg x="2240"><use xlink:href="#a"/><use xlink:href="#b" x="19.996" y="43.395"/><use xlink:href="#1"/><use xlink:href="#4" y="2.171"/><use xlink:href="#5" y="4.342"/><use xlink:href="#6" y="6.513"/><use xlink:href="#7" y="8.684"/><use xlink:href="#8" y="10.855"/><use xlink:href="#9" y="13.026"/><use xlink:href="#10" y="15.197"/><use xlink:href="#11" y="17.368"/><use xlink:href="#12" y="19.539"/><use xlink:href="#13" y="21.71"/><use xlink:href="#14" y="23.881"/><use xlink:href="#15" y="26.052"/><use xlink:href="#16" y="28.223"/><use xlink:href="#17" y="30.394"/><use xlink:href="#18" y="32.565"/><use xlink:href="#19" y="34.736"/><use xlink:href="#2" y="36.907"/><use xlink:href="#20" y="41.249"/><text y="45.09" class="c">...saving</text><text x="10.02" y="45.09" class="c">history...</text></svg><svg x="2320"><use xlink:href="#a"/><use xlink:href="#b" x="46.996" y="43.395"/><use xlink:href="#1"/><use xlink:href="#4" y="2.171"/><use xlink:href="#5" y="4.342"/><use xlink:href="#6" y="6.513"/><use xlink:href="#7" y="8.684"/><use xlink:href="#8" y="10.855"/><use xlink:href="#9" y="13.026"/><use xlink:href="#10" y="15.197"/><use xlink:href="#11" y="17.368"/><use xlink:href="#12" y="19.539"/><use xlink:href="#13" y="21.71"/><use xlink:href="#14" y="23.881"/><use xlink:href="#15" y="26.052"/><use xlink:href="#16" y="28.223"/><use xlink:href="#17" y="30.394"/><use xlink:href="#18" y="32.565"/><use xlink:href="#19" y="34.736"/><use xlink:href="#2" y="36.907"/><use xlink:href="#20" y="41.249"/><use xlink:href="#21" y="43.42"/></svg><svg x="2400"><use xlink:href="#a"/><use xlink:href="#b" x="2.996" y="45.566"/><use xlink:href="#1"/><use xlink:href="#4" y="2.171"/><use xlink:href="#5" y="4.342"/><use xlink:href="#6" y="6.513"/><use xlink:href="#7" y="8.684"/><use xlink:href="#8" y="10.855"/><use xlink:href="#9" y="13.026"/><use xlink:href="#10" y="15.197"/><use xlink:href="#11" y="17.368"/><use xlink:href="#12" y="19.539"/><use xlink:href="#13" y="21.71"/><use xlink:href="#14" y="23.881"/><use xlink:href="#15" y="26.052"/><use xlink:href="#16" y="28.223"/><use xlink:href="#17" y="30.394"/><use xlink:href="#18" y="32.565"/><use xlink:href="#19" y="34.736"/><use xlink:href="#2" y="36.907"/><use xlink:href="#20" y="41.249"/><use xlink:href="#21" y="43.42"/><text y="47.261" class="c">...</text></svg><svg x="2480"><use xlink:href="#a"/><use xlink:href="#b" x="-.004" y="47.737"/><use xlink:href="#1"/><use xlink:href="#4" y="2.171"/><use xlink:href="#5" y="4.342"/><use xlink:href="#6" y="6.513"/><use xlink:href="#7" y="8.684"/><use xlink:href="#8" y="10.855"/><use xlink:href="#9" y="13.026"/><use xlink:href="#10" y="15.197"/><use xlink:href="#11" y="17.368"/><use xlink:href="#12" y="19.539"/><use xlink:href="#13" y="21.71"/><use xlink:href="#14" y="23.881"/><use xlink:href="#15" y="26.052"/><use xlink:href="#16" y="28.223"/><use xlink:href="#17" y="30.394"/><use xlink:href="#18" y="32.565"/><use xlink:href="#19" y="34.736"/><use xlink:href="#2" y="36.907"/><use xlink:href="#20" y="41.249"/><use xlink:href="#21" y="43.42"/><text y="47.261" class="c">...completed.</text></svg></svg></g></g></svg></svg>