<svg xmlns="http://www.w3.org/2000/svg" xmlns:xlink="http://www.w3.org/1999/xlink" width="1000" height="651.3"><rect width="1000" height="651.3" rx="0" ry="0" class="a"/><svg height="651.3" viewBox="0 0 100 65.13" width="1000" xmlns="http://www.w3.org/2000/svg" xmlns:xlink="http://www.w3.org/1999/xlink"><style>@keyframes f{0%{transform:translateX(0)}32.8%{transform:translateX(-100px)}32.9%{transform:translateX(-300px)}41.1%{transform:translateX(-400px)}42.9%{transform:translateX(-500px)}45.7%{transform:translateX(-600px)}53.9%{transform:translateX(-800px)}54%{transform:translateX(-900px)}54.1%{transform:translateX(-1300px)}62.3%{transform:translateX(-1400px)}64.4%{transform:translateX(-1500px)}66.2%{transform:translateX(-1600px)}70.4%{transform:translateX(-1700px)}73.6%{transform:translateX(-1800px)}74.5%{transform:translateX(-1900px)}82.7%{transform:translateX(-2100px)}82.9%{transform:translateX(-2700px)}91.1%{transform:translateX(-3000px)}91.2%{transform:translateX(-3100px)}99.4%{transform:translateX(-3300px)}99.6%{transform:translateX(-3400px)}99.8%{transform:translateX(-3500px)}to{transform:translateX(-3600px)}}.a{fill:#282d35}.c{fill:#b9c0cb;white-space:pre}</style><g font-family="Monaco,Consolas,Menlo,'Bitstream Vera Sans Mono','Powerline Symbols',monospace" font-size="1.67"><defs><symbol id="1"><text y="1.67" class="c">barry@Barrys-MBP</text><text x="17.034" y="1.67" class="c">asciinema-scripts</text><text x="35.07" y="1.67" class="c">%</text></symbol><symbol id="2"><text y="1.67" class="c">barry@Barrys-MBP</text><text x="17.034" y="1.67" class="c">asciinema-scripts</text><text x="35.07" y="1.67" class="c">%</text><text x="37.074" y="1.67" class="c">l</text></symbol><symbol id="3"><text y="1.67" class="c">barry@Barrys-MBP</text><text x="17.034" y="1.67" class="c">asciinema-scripts</text><text x="35.07" y="1.67" class="c">%</text><text x="37.074" y="1.67" class="c">ls</text></symbol><symbol id="4"><text y="1.67" class="c">Dockerfile</text><text x="16.032" y="1.67" class="c">assets</text><text x="32.064" y="1.67" class="c">my_trimmed.cast</text><text x="48.096" y="1.67" class="c">record.cast</text><text x="64.128" y="1.67" class="c">venv</text></symbol><symbol id="5"><text y="1.67" class="c">LICENSE</text><text x="16.032" y="1.67" class="c">input.cast</text><text x="32.064" y="1.67" class="c">output.svg</text><text x="48.096" y="1.67" class="c">resize.sh</text></symbol><symbol id="6"><text y="1.67" class="c">README.md</text><text x="16.032" y="1.67" class="c">my.cast</text><text x="32.064" y="1.67" class="c">overall.cast</text><text x="48.096" y="1.67" class="c">trim_pauses.py</text></symbol><symbol id="7"><text y="1.67" class="c">barry@Barrys-MBP</text><text x="17.034" y="1.67" class="c">asciinema-scripts</text><text x="35.07" y="1.67" class="c">%</text><text x="37.074" y="1.67" class="c">ls</text><text x="40.08" y="1.67" class="c">-al</text></symbol><symbol id="8"><text y="1.67" class="c">total</text><text x="6.012" y="1.67" class="c">152</text></symbol><symbol id="9"><text y="1.67" class="c">drwxr-xr-x</text><text x="12.024" y="1.67" class="c">18</text><text x="15.03" y="1.67" class="c">barry</text><text x="22.044" y="1.67" class="c">staff</text><text x="31.062" y="1.67" class="c">576</text><text x="35.07" y="1.67" class="c">16</text><text x="38.076" y="1.67" class="c">Jun</text><text x="42.084" y="1.67" class="c">13:16</text><text x="48.096" y="1.67" class="c">.</text></symbol><symbol id="10"><text y="1.67" class="c">drwxr-xr-x</text><text x="12.024" y="1.67" class="c">19</text><text x="15.03" y="1.67" class="c">barry</text><text x="22.044" y="1.67" class="c">staff</text><text x="31.062" y="1.67" class="c">608</text><text x="35.07" y="1.67" class="c">16</text><text x="38.076" y="1.67" class="c">Jun</text><text x="42.084" y="1.67" class="c">08:29</text><text x="48.096" y="1.67" class="c">..</text></symbol><symbol id="11"><text y="1.67" class="c">drwxr-xr-x</text><text x="12.024" y="1.67" class="c">14</text><text x="15.03" y="1.67" class="c">barry</text><text x="22.044" y="1.67" class="c">staff</text><text x="31.062" y="1.67" class="c">448</text><text x="35.07" y="1.67" class="c">16</text><text x="38.076" y="1.67" class="c">Jun</text><text x="42.084" y="1.67" class="c">12:56</text><text x="48.096" y="1.67" class="c">.git</text></symbol><symbol id="12"><text y="1.67" class="c">-rw-r--r--</text><text x="13.026" y="1.67" class="c">1</text><text x="15.03" y="1.67" class="c">barry</text><text x="22.044" y="1.67" class="c">staff</text><text x="32.064" y="1.67" class="c">66</text><text x="35.07" y="1.67" class="c">16</text><text x="38.076" y="1.67" class="c">Jun</text><text x="42.084" y="1.67" class="c">08:29</text><text x="48.096" y="1.67" class="c">.gitattributes</text></symbol><symbol id="13"><text y="1.67" class="c">-rw-r--r--</text><text x="13.026" y="1.67" class="c">1</text><text x="15.03" y="1.67" class="c">barry</text><text x="22.044" y="1.67" class="c">staff</text><text x="32.064" y="1.67" class="c">14</text><text x="35.07" y="1.67" class="c">16</text><text x="38.076" y="1.67" class="c">Jun</text><text x="42.084" y="1.67" class="c">10:16</text><text x="48.096" y="1.67" class="c">.gitignore</text></symbol><symbol id="14"><text y="1.67" class="c">-rw-r--r--</text><text x="13.026" y="1.67" class="c">1</text><text x="15.03" y="1.67" class="c">barry</text><text x="22.044" y="1.67" class="c">staff</text><text x="31.062" y="1.67" class="c">269</text><text x="35.07" y="1.67" class="c">16</text><text x="38.076" y="1.67" class="c">Jun</text><text x="42.084" y="1.67" class="c">10:44</text><text x="48.096" y="1.67" class="c">Dockerfile</text></symbol><symbol id="15"><text y="1.67" class="c">-rw-r--r--</text><text x="13.026" y="1.67" class="c">1</text><text x="15.03" y="1.67" class="c">barry</text><text x="22.044" y="1.67" class="c">staff</text><text x="30.06" y="1.67" class="c">1066</text><text x="35.07" y="1.67" class="c">16</text><text x="38.076" y="1.67" class="c">Jun</text><text x="42.084" y="1.67" class="c">08:29</text><text x="48.096" y="1.67" class="c">LICENSE</text></symbol><symbol id="16"><text y="1.67" class="c">-rw-r--r--</text><text x="13.026" y="1.67" class="c">1</text><text x="15.03" y="1.67" class="c">barry</text><text x="22.044" y="1.67" class="c">staff</text><text x="30.06" y="1.67" class="c">4621</text><text x="35.07" y="1.67" class="c">16</text><text x="38.076" y="1.67" class="c">Jun</text><text x="42.084" y="1.67" class="c">12:53</text><text x="48.096" y="1.67" class="c">README.md</text></symbol><symbol id="17"><text y="1.67" class="c">drwxr-xr-x</text><text x="13.026" y="1.67" class="c">2</text><text x="15.03" y="1.67" class="c">barry</text><text x="22.044" y="1.67" class="c">staff</text><text x="32.064" y="1.67" class="c">64</text><text x="35.07" y="1.67" class="c">16</text><text x="38.076" y="1.67" class="c">Jun</text><text x="42.084" y="1.67" class="c">13:12</text><text x="48.096" y="1.67" class="c">assets</text></symbol><symbol id="18"><text y="1.67" class="c">-rw-r--r--</text><text x="13.026" y="1.67" class="c">1</text><text x="15.03" y="1.67" class="c">barry</text><text x="22.044" y="1.67" class="c">staff</text><text x="30.06" y="1.67" class="c">2572</text><text x="35.07" y="1.67" class="c">16</text><text x="38.076" y="1.67" class="c">Jun</text><text x="42.084" y="1.67" class="c">13:10</text><text x="48.096" y="1.67" class="c">input.cast</text></symbol><symbol id="19"><text y="1.67" class="c">-rw-r--r--</text><text x="13.026" y="1.67" class="c">1</text><text x="15.03" y="1.67" class="c">barry</text><text x="22.044" y="1.67" class="c">staff</text><text x="30.06" y="1.67" class="c">2539</text><text x="35.07" y="1.67" class="c">16</text><text x="38.076" y="1.67" class="c">Jun</text><text x="42.084" y="1.67" class="c">12:50</text><text x="48.096" y="1.67" class="c">my.cast</text></symbol><symbol id="20"><text y="1.67" class="c">-rw-r--r--</text><text x="13.026" y="1.67" class="c">1</text><text x="15.03" y="1.67" class="c">barry</text><text x="22.044" y="1.67" class="c">staff</text><text x="30.06" y="1.67" class="c">2571</text><text x="35.07" y="1.67" class="c">16</text><text x="38.076" y="1.67" class="c">Jun</text><text x="42.084" y="1.67" class="c">13:09</text><text x="48.096" y="1.67" class="c">my_trimmed.cast</text></symbol><symbol id="21"><text y="1.67" class="c">-rw-r--r--@</text><text x="13.026" y="1.67" class="c">1</text><text x="15.03" y="1.67" class="c">barry</text><text x="22.044" y="1.67" class="c">staff</text><text x="29.058" y="1.67" class="c">17454</text><text x="35.07" y="1.67" class="c">16</text><text x="38.076" y="1.67" class="c">Jun</text><text x="42.084" y="1.67" class="c">13:10</text><text x="48.096" y="1.67" class="c">output.svg</text></symbol><symbol id="22"><text y="1.67" class="c">-rw-r--r--</text><text x="13.026" y="1.67" class="c">1</text><text x="15.03" y="1.67" class="c">barry</text><text x="22.044" y="1.67" class="c">staff</text><text x="30.06" y="1.67" class="c">7026</text><text x="35.07" y="1.67" class="c">16</text><text x="38.076" y="1.67" class="c">Jun</text><text x="42.084" y="1.67" class="c">13:16</text><text x="48.096" y="1.67" class="c">overall.cast</text></symbol><symbol id="23"><text y="1.67" class="c">-rw-r--r--</text><text x="13.026" y="1.67" class="c">1</text><text x="15.03" y="1.67" class="c">barry</text><text x="22.044" y="1.67" class="c">staff</text><text x="30.06" y="1.67" class="c">1399</text><text x="35.07" y="1.67" class="c">16</text><text x="38.076" y="1.67" class="c">Jun</text><text x="42.084" y="1.67" class="c">13:16</text><text x="48.096" y="1.67" class="c">record.cast</text></symbol><symbol id="24"><text y="1.67" class="c">-rwxr-xr-x</text><text x="13.026" y="1.67" class="c">1</text><text x="15.03" y="1.67" class="c">barry</text><text x="22.044" y="1.67" class="c">staff</text><text x="30.06" y="1.67" class="c">1823</text><text x="35.07" y="1.67" class="c">16</text><text x="38.076" y="1.67" class="c">Jun</text><text x="42.084" y="1.67" class="c">11:46</text><text x="48.096" y="1.67" class="c">resize.sh</text></symbol><symbol id="25"><text y="1.67" class="c">-rw-r--r--</text><text x="13.026" y="1.67" class="c">1</text><text x="15.03" y="1.67" class="c">barry</text><text x="22.044" y="1.67" class="c">staff</text><text x="30.06" y="1.67" class="c">3048</text><text x="35.07" y="1.67" class="c">16</text><text x="38.076" y="1.67" class="c">Jun</text><text x="42.084" y="1.67" class="c">10:26</text><text x="48.096" y="1.67" class="c">trim_pauses.py</text></symbol><symbol id="26"><text y="1.67" class="c">drwxr-xr-x</text><text x="13.026" y="1.67" class="c">6</text><text x="15.03" y="1.67" class="c">barry</text><text x="22.044" y="1.67" class="c">staff</text><text x="31.062" y="1.67" class="c">192</text><text x="35.07" y="1.67" class="c">16</text><text x="38.076" y="1.67" class="c">Jun</text><text x="42.084" y="1.67" class="c">08:40</text><text x="48.096" y="1.67" class="c">venv</text></symbol><symbol id="27"><text y="1.67" class="c">Saving</text><text x="7.014" y="1.67" class="c">session...</text></symbol><symbol id="28"><text y="1.67" class="c">...saving</text><text x="10.02" y="1.67" class="c">history...truncating</text><text x="31.062" y="1.67" class="c">history</text><text x="39.078" y="1.67" class="c">files...</text></symbol><symbol id="a"><path fill="transparent" d="M0 0h100v30H0z"/></symbol><symbol id="b"><path fill="#6f7683" d="M0 0h1.102v2.171H0z"/></symbol></defs><path class="a" d="M0 0h100v65.13H0z"/><g style="animation-duration:6.096596s;animation-iteration-count:infinite;animation-name:f;animation-timing-function:steps(1,end)"><svg width="3700"><svg><use xlink:href="#a"/><use xlink:href="#b" x="-.004"/></svg><svg x="100"><use xlink:href="#a"/><use xlink:href="#b" x="-.004"/></svg><svg x="200"><use xlink:href="#a"/><use xlink:href="#b" x="-.004"/></svg><svg x="300"><use xlink:href="#a"/><use xlink:href="#b" x="36.996"/><use xlink:href="#1"/></svg><svg x="400"><use xlink:href="#a"/><use xlink:href="#b" x="37.996"/><use xlink:href="#2"/></svg><svg x="500"><use xlink:href="#a"/><use xlink:href="#b" x="38.996"/><use xlink:href="#3"/></svg><svg x="600"><use xlink:href="#a"/><use xlink:href="#b" x="39.996"/><use xlink:href="#3"/></svg><svg x="700"><use xlink:href="#a"/><use xlink:href="#b" x="39.996"/><use xlink:href="#3"/></svg><svg x="800"><use xlink:href="#a"/><use xlink:href="#b" x="-.004" y="2.146"/><use xlink:href="#3"/></svg><svg x="900"><use xlink:href="#a"/><use xlink:href="#b" x="-.004" y="8.659"/><use xlink:href="#3"/><use xlink:href="#4" y="2.171"/><use xlink:href="#5" y="4.342"/><use xlink:href="#6" y="6.513"/></svg><svg x="1000"><use xlink:href="#a"/><use xlink:href="#b" x="-.004" y="8.659"/><use xlink:href="#3"/><use xlink:href="#4" y="2.171"/><use xlink:href="#5" y="4.342"/><use xlink:href="#6" y="6.513"/></svg><svg x="1100"><use xlink:href="#a"/><use xlink:href="#b" x="-.004" y="8.659"/><use xlink:href="#3"/><use xlink:href="#4" y="2.171"/><use xlink:href="#5" y="4.342"/><use xlink:href="#6" y="6.513"/></svg><svg x="1200"><use xlink:href="#a"/><use xlink:href="#b" x="36.996" y="8.659"/><use xlink:href="#3"/><use xlink:href="#4" y="2.171"/><use xlink:href="#5" y="4.342"/><use xlink:href="#6" y="6.513"/><use xlink:href="#1" y="8.684"/></svg><svg x="1300"><use xlink:href="#a"/><use xlink:href="#b" x="36.996" y="8.659"/><use xlink:href="#3"/><use xlink:href="#4" y="2.171"/><use xlink:href="#5" y="4.342"/><use xlink:href="#6" y="6.513"/><use xlink:href="#1" y="8.684"/></svg><svg x="1400"><use xlink:href="#a"/><use xlink:href="#b" x="37.996" y="8.659"/><use xlink:href="#3"/><use xlink:href="#4" y="2.171"/><use xlink:href="#5" y="4.342"/><use xlink:href="#6" y="6.513"/><use xlink:href="#2" y="8.684"/></svg><svg x="1500"><use xlink:href="#a"/><use xlink:href="#b" x="38.996" y="8.659"/><use xlink:href="#3"/><use xlink:href="#4" y="2.171"/><use xlink:href="#5" y="4.342"/><use xlink:href="#6" y="6.513"/><use xlink:href="#3" y="8.684"/></svg><svg x="1600"><use xlink:href="#a"/><use xlink:href="#b" x="39.996" y="8.659"/><use xlink:href="#3"/><use xlink:href="#4" y="2.171"/><use xlink:href="#5" y="4.342"/><use xlink:href="#6" y="6.513"/><use xlink:href="#3" y="8.684"/></svg><svg x="1700"><use xlink:href="#a"/><use xlink:href="#b" x="40.996" y="8.659"/><use xlink:href="#3"/><use xlink:href="#4" y="2.171"/><use xlink:href="#5" y="4.342"/><use xlink:href="#6" y="6.513"/><text y="10.354" class="c">barry@Barrys-MBP</text><text x="17.034" y="10.354" class="c">asciinema-scripts</text><text x="35.07" y="10.354" class="c">%</text><text x="37.074" y="10.354" class="c">ls</text><text x="40.08" y="10.354" class="c">-</text></svg><svg x="1800"><use xlink:href="#a"/><use xlink:href="#b" x="41.996" y="8.659"/><use xlink:href="#3"/><use xlink:href="#4" y="2.171"/><use xlink:href="#5" y="4.342"/><use xlink:href="#6" y="6.513"/><text y="10.354" class="c">barry@Barrys-MBP</text><text x="17.034" y="10.354" class="c">asciinema-scripts</text><text x="35.07" y="10.354" class="c">%</text><text x="37.074" y="10.354" class="c">ls</text><text x="40.08" y="10.354" class="c">-a</text></svg><svg x="1900"><use xlink:href="#a"/><use xlink:href="#b" x="42.996" y="8.659"/><use xlink:href="#3"/><use xlink:href="#4" y="2.171"/><use xlink:href="#5" y="4.342"/><use xlink:href="#6" y="6.513"/><use xlink:href="#7" y="8.684"/></svg><svg x="2000"><use xlink:href="#a"/><use xlink:href="#b" x="42.996" y="8.659"/><use xlink:href="#3"/><use xlink:href="#4" y="2.171"/><use xlink:href="#5" y="4.342"/><use xlink:href="#6" y="6.513"/><use xlink:href="#7" y="8.684"/></svg><svg x="2100"><use xlink:href="#a"/><use xlink:href="#b" x="-.004" y="10.83"/><use xlink:href="#3"/><use xlink:href="#4" y="2.171"/><use xlink:href="#5" y="4.342"/><use xlink:href="#6" y="6.513"/><use xlink:href="#7" y="8.684"/></svg><svg x="2200"><use xlink:href="#a"/><use xlink:href="#b" x="-.004" y="13.001"/><use xlink:href="#3"/><use xlink:href="#4" y="2.171"/><use xlink:href="#5" y="4.342"/><use xlink:href="#6" y="6.513"/><use xlink:href="#7" y="8.684"/><use xlink:href="#8" y="10.855"/></svg><svg x="2300"><use xlink:href="#a"/><use xlink:href="#b" x="-.004" y="32.54"/><use xlink:href="#3"/><use xlink:href="#4" y="2.171"/><use xlink:href="#5" y="4.342"/><use xlink:href="#6" y="6.513"/><use xlink:href="#7" y="8.684"/><use xlink:href="#8" y="10.855"/><use xlink:href="#9" y="13.026"/><use xlink:href="#10" y="15.197"/><use xlink:href="#11" y="17.368"/><use xlink:href="#12" y="19.539"/><use xlink:href="#13" y="21.71"/><use xlink:href="#14" y="23.881"/><use xlink:href="#15" y="26.052"/><use xlink:href="#16" y="28.223"/><use xlink:href="#17" y="30.394"/></svg><svg x="2400"><use xlink:href="#a"/><use xlink:href="#b" x="-.004" y="52.079"/><use xlink:href="#3"/><use xlink:href="#4" y="2.171"/><use xlink:href="#5" y="4.342"/><use xlink:href="#6" y="6.513"/><use xlink:href="#7" y="8.684"/><use xlink:href="#8" y="10.855"/><use xlink:href="#9" y="13.026"/><use xlink:href="#10" y="15.197"/><use xlink:href="#11" y="17.368"/><use xlink:href="#12" y="19.539"/><use xlink:href="#13" y="21.71"/><use xlink:href="#14" y="23.881"/><use xlink:href="#15" y="26.052"/><use xlink:href="#16" y="28.223"/><use xlink:href="#17" y="30.394"/><use xlink:href="#18" y="32.565"/><use xlink:href="#19" y="34.736"/><use xlink:href="#20" y="36.907"/><use xlink:href="#21" y="39.078"/><use xlink:href="#22" y="41.249"/><use xlink:href="#23" y="43.42"/><use xlink:href="#24" y="45.591"/><use xlink:href="#25" y="47.762"/><use xlink:href="#26" y="49.933"/></svg><svg x="2500"><use xlink:href="#a"/><use xlink:href="#b" x="-.004" y="52.079"/><use xlink:href="#3"/><use xlink:href="#4" y="2.171"/><use xlink:href="#5" y="4.342"/><use xlink:href="#6" y="6.513"/><use xlink:href="#7" y="8.684"/><use xlink:href="#8" y="10.855"/><use xlink:href="#9" y="13.026"/><use xlink:href="#10" y="15.197"/><use xlink:href="#11" y="17.368"/><use xlink:href="#12" y="19.539"/><use xlink:href="#13" y="21.71"/><use xlink:href="#14" y="23.881"/><use xlink:href="#15" y="26.052"/><use xlink:href="#16" y="28.223"/><use xlink:href="#17" y="30.394"/><use xlink:href="#18" y="32.565"/><use xlink:href="#19" y="34.736"/><use xlink:href="#20" y="36.907"/><use xlink:href="#21" y="39.078"/><use xlink:href="#22" y="41.249"/><use xlink:href="#23" y="43.42"/><use xlink:href="#24" y="45.591"/><use xlink:href="#25" y="47.762"/><use xlink:href="#26" y="49.933"/></svg><svg x="2600"><use xlink:href="#a"/><use xlink:href="#b" x="-.004" y="52.079"/><use xlink:href="#3"/><use xlink:href="#4" y="2.171"/><use xlink:href="#5" y="4.342"/><use xlink:href="#6" y="6.513"/><use xlink:href="#7" y="8.684"/><use xlink:href="#8" y="10.855"/><use xlink:href="#9" y="13.026"/><use xlink:href="#10" y="15.197"/><use xlink:href="#11" y="17.368"/><use xlink:href="#12" y="19.539"/><use xlink:href="#13" y="21.71"/><use xlink:href="#14" y="23.881"/><use xlink:href="#15" y="26.052"/><use xlink:href="#16" y="28.223"/><use xlink:href="#17" y="30.394"/><use xlink:href="#18" y="32.565"/><use xlink:href="#19" y="34.736"/><use xlink:href="#20" y="36.907"/><use xlink:href="#21" y="39.078"/><use xlink:href="#22" y="41.249"/><use xlink:href="#23" y="43.42"/><use xlink:href="#24" y="45.591"/><use xlink:href="#25" y="47.762"/><use xlink:href="#26" y="49.933"/></svg><svg x="2700"><use xlink:href="#a"/><use xlink:href="#b" x="36.996" y="52.079"/><use xlink:href="#3"/><use xlink:href="#4" y="2.171"/><use xlink:href="#5" y="4.342"/><use xlink:href="#6" y="6.513"/><use xlink:href="#7" y="8.684"/><use xlink:href="#8" y="10.855"/><use xlink:href="#9" y="13.026"/><use xlink:href="#10" y="15.197"/><use xlink:href="#11" y="17.368"/><use xlink:href="#12" y="19.539"/><use xlink:href="#13" y="21.71"/><use xlink:href="#14" y="23.881"/><use xlink:href="#15" y="26.052"/><use xlink:href="#16" y="28.223"/><use xlink:href="#17" y="30.394"/><use xlink:href="#18" y="32.565"/><use xlink:href="#19" y="34.736"/><use xlink:href="#20" y="36.907"/><use xlink:href="#21" y="39.078"/><use xlink:href="#22" y="41.249"/><use xlink:href="#23" y="43.42"/><use xlink:href="#24" y="45.591"/><use xlink:href="#25" y="47.762"/><use xlink:href="#26" y="49.933"/><use xlink:href="#1" y="52.104"/></svg><svg x="2800"><use xlink:href="#a"/><use xlink:href="#b" x="-.004" y="54.25"/><use xlink:href="#3"/><use xlink:href="#4" y="2.171"/><use xlink:href="#5" y="4.342"/><use xlink:href="#6" y="6.513"/><use xlink:href="#7" y="8.684"/><use xlink:href="#8" y="10.855"/><use xlink:href="#9" y="13.026"/><use xlink:href="#10" y="15.197"/><use xlink:href="#11" y="17.368"/><use xlink:href="#12" y="19.539"/><use xlink:href="#13" y="21.71"/><use xlink:href="#14" y="23.881"/><use xlink:href="#15" y="26.052"/><use xlink:href="#16" y="28.223"/><use xlink:href="#17" y="30.394"/><use xlink:href="#18" y="32.565"/><use xlink:href="#19" y="34.736"/><use xlink:href="#20" y="36.907"/><use xlink:href="#21" y="39.078"/><use xlink:href="#22" y="41.249"/><use xlink:href="#23" y="43.42"/><use xlink:href="#24" y="45.591"/><use xlink:href="#25" y="47.762"/><use xlink:href="#26" y="49.933"/><use xlink:href="#1" y="52.104"/></svg><svg x="2900"><use xlink:href="#a"/><use xlink:href="#b" x="-.004" y="54.25"/><use xlink:href="#3"/><use xlink:href="#4" y="2.171"/><use xlink:href="#5" y="4.342"/><use xlink:href="#6" y="6.513"/><use xlink:href="#7" y="8.684"/><use xlink:href="#8" y="10.855"/><use xlink:href="#9" y="13.026"/><use xlink:href="#10" y="15.197"/><use xlink:href="#11" y="17.368"/><use xlink:href="#12" y="19.539"/><use xlink:href="#13" y="21.71"/><use xlink:href="#14" y="23.881"/><use xlink:href="#15" y="26.052"/><use xlink:href="#16" y="28.223"/><use xlink:href="#17" y="30.394"/><use xlink:href="#18" y="32.565"/><use xlink:href="#19" y="34.736"/><use xlink:href="#20" y="36.907"/><use xlink:href="#21" y="39.078"/><use xlink:href="#22" y="41.249"/><use xlink:href="#23" y="43.42"/><use xlink:href="#24" y="45.591"/><use xlink:href="#25" y="47.762"/><use xlink:href="#26" y="49.933"/><use xlink:href="#1" y="52.104"/></svg><svg x="3000"><use xlink:href="#a"/><use xlink:href="#b" x="-.004" y="54.25"/><use xlink:href="#3"/><use xlink:href="#4" y="2.171"/><use xlink:href="#5" y="4.342"/><use xlink:href="#6" y="6.513"/><use xlink:href="#7" y="8.684"/><use xlink:href="#8" y="10.855"/><use xlink:href="#9" y="13.026"/><use xlink:href="#10" y="15.197"/><use xlink:href="#11" y="17.368"/><use xlink:href="#12" y="19.539"/><use xlink:href="#13" y="21.71"/><use xlink:href="#14" y="23.881"/><use xlink:href="#15" y="26.052"/><use xlink:href="#16" y="28.223"/><use xlink:href="#17" y="30.394"/><use xlink:href="#18" y="32.565"/><use xlink:href="#19" y="34.736"/><use xlink:href="#20" y="36.907"/><use xlink:href="#21" y="39.078"/><use xlink:href="#22" y="41.249"/><use xlink:href="#23" y="43.42"/><use xlink:href="#24" y="45.591"/><use xlink:href="#25" y="47.762"/><use xlink:href="#26" y="49.933"/><use xlink:href="#1" y="52.104"/></svg><svg x="3100"><use xlink:href="#a"/><use xlink:href="#b" x="36.996" y="54.25"/><use xlink:href="#3"/><use xlink:href="#4" y="2.171"/><use xlink:href="#5" y="4.342"/><use xlink:href="#6" y="6.513"/><use xlink:href="#7" y="8.684"/><use xlink:href="#8" y="10.855"/><use xlink:href="#9" y="13.026"/><use xlink:href="#10" y="15.197"/><use xlink:href="#11" y="17.368"/><use xlink:href="#12" y="19.539"/><use xlink:href="#13" y="21.71"/><use xlink:href="#14" y="23.881"/><use xlink:href="#15" y="26.052"/><use xlink:href="#16" y="28.223"/><use xlink:href="#17" y="30.394"/><use xlink:href="#18" y="32.565"/><use xlink:href="#19" y="34.736"/><use xlink:href="#20" y="36.907"/><use xlink:href="#21" y="39.078"/><use xlink:href="#22" y="41.249"/><use xlink:href="#23" y="43.42"/><use xlink:href="#24" y="45.591"/><use xlink:href="#25" y="47.762"/><use xlink:href="#26" y="49.933"/><use xlink:href="#1" y="52.104"/><use xlink:href="#1" y="54.275"/></svg><svg x="3200"><use xlink:href="#a"/><use xlink:href="#b" x="-.004" y="56.421"/><use xlink:href="#3"/><use xlink:href="#4" y="2.171"/><use xlink:href="#5" y="4.342"/><use xlink:href="#6" y="6.513"/><use xlink:href="#7" y="8.684"/><use xlink:href="#8" y="10.855"/><use xlink:href="#9" y="13.026"/><use xlink:href="#10" y="15.197"/><use xlink:href="#11" y="17.368"/><use xlink:href="#12" y="19.539"/><use xlink:href="#13" y="21.71"/><use xlink:href="#14" y="23.881"/><use xlink:href="#15" y="26.052"/><use xlink:href="#16" y="28.223"/><use xlink:href="#17" y="30.394"/><use xlink:href="#18" y="32.565"/><use xlink:href="#19" y="34.736"/><use xlink:href="#20" y="36.907"/><use xlink:href="#21" y="39.078"/><use xlink:href="#22" y="41.249"/><use xlink:href="#23" y="43.42"/><use xlink:href="#24" y="45.591"/><use xlink:href="#25" y="47.762"/><use xlink:href="#26" y="49.933"/><use xlink:href="#1" y="52.104"/><use xlink:href="#1" y="54.275"/></svg><svg x="3300"><use xlink:href="#a"/><use xlink:href="#b" x="16.996" y="58.592"/><use xlink:href="#3"/><use xlink:href="#4" y="2.171"/><use xlink:href="#5" y="4.342"/><use xlink:href="#6" y="6.513"/><use xlink:href="#7" y="8.684"/><use xlink:href="#8" y="10.855"/><use xlink:href="#9" y="13.026"/><use xlink:href="#10" y="15.197"/><use xlink:href="#11" y="17.368"/><use xlink:href="#12" y="19.539"/><use xlink:href="#13" y="21.71"/><use xlink:href="#14" y="23.881"/><use xlink:href="#15" y="26.052"/><use xlink:href="#16" y="28.223"/><use xlink:href="#17" y="30.394"/><use xlink:href="#18" y="32.565"/><use xlink:href="#19" y="34.736"/><use xlink:href="#20" y="36.907"/><use xlink:href="#21" y="39.078"/><use xlink:href="#22" y="41.249"/><use xlink:href="#23" y="43.42"/><use xlink:href="#24" y="45.591"/><use xlink:href="#25" y="47.762"/><use xlink:href="#26" y="49.933"/><use xlink:href="#1" y="52.104"/><use xlink:href="#1" y="54.275"/><use xlink:href="#27" y="58.617"/></svg><svg x="3400"><use xlink:href="#a"/><use xlink:href="#b" x="19.996" y="60.763"/><use xlink:href="#3"/><use xlink:href="#4" y="2.171"/><use xlink:href="#5" y="4.342"/><use xlink:href="#6" y="6.513"/><use xlink:href="#7" y="8.684"/><use xlink:href="#8" y="10.855"/><use xlink:href="#9" y="13.026"/><use xlink:href="#10" y="15.197"/><use xlink:href="#11" y="17.368"/><use xlink:href="#12" y="19.539"/><use xlink:href="#13" y="21.71"/><use xlink:href="#14" y="23.881"/><use xlink:href="#15" y="26.052"/><use xlink:href="#16" y="28.223"/><use xlink:href="#17" y="30.394"/><use xlink:href="#18" y="32.565"/><use xlink:href="#19" y="34.736"/><use xlink:href="#20" y="36.907"/><use xlink:href="#21" y="39.078"/><use xlink:href="#22" y="41.249"/><use xlink:href="#23" y="43.42"/><use xlink:href="#24" y="45.591"/><use xlink:href="#25" y="47.762"/><use xlink:href="#26" y="49.933"/><use xlink:href="#1" y="52.104"/><use xlink:href="#1" y="54.275"/><use xlink:href="#27" y="58.617"/><text y="62.458" class="c">...saving</text><text x="10.02" y="62.458" class="c">history...</text></svg><svg x="3500"><use xlink:href="#a"/><use xlink:href="#b" x="46.996" y="60.763"/><use xlink:href="#3"/><use xlink:href="#4" y="2.171"/><use xlink:href="#5" y="4.342"/><use xlink:href="#6" y="6.513"/><use xlink:href="#7" y="8.684"/><use xlink:href="#8" y="10.855"/><use xlink:href="#9" y="13.026"/><use xlink:href="#10" y="15.197"/><use xlink:href="#11" y="17.368"/><use xlink:href="#12" y="19.539"/><use xlink:href="#13" y="21.71"/><use xlink:href="#14" y="23.881"/><use xlink:href="#15" y="26.052"/><use xlink:href="#16" y="28.223"/><use xlink:href="#17" y="30.394"/><use xlink:href="#18" y="32.565"/><use xlink:href="#19" y="34.736"/><use xlink:href="#20" y="36.907"/><use xlink:href="#21" y="39.078"/><use xlink:href="#22" y="41.249"/><use xlink:href="#23" y="43.42"/><use xlink:href="#24" y="45.591"/><use xlink:href="#25" y="47.762"/><use xlink:href="#26" y="49.933"/><use xlink:href="#1" y="52.104"/><use xlink:href="#1" y="54.275"/><use xlink:href="#27" y="58.617"/><use xlink:href="#28" y="60.788"/></svg><svg x="3600"><use xlink:href="#a"/><use xlink:href="#b" x="-.004" y="62.934"/><use xlink:href="#4"/><use xlink:href="#5" y="2.171"/><use xlink:href="#6" y="4.342"/><use xlink:href="#7" y="6.513"/><use xlink:href="#8" y="8.684"/><use xlink:href="#9" y="10.855"/><use xlink:href="#10" y="13.026"/><use xlink:href="#11" y="15.197"/><use xlink:href="#12" y="17.368"/><use xlink:href="#13" y="19.539"/><use xlink:href="#14" y="21.71"/><use xlink:href="#15" y="23.881"/><use xlink:href="#16" y="26.052"/><use xlink:href="#17" y="28.223"/><use xlink:href="#18" y="30.394"/><use xlink:href="#19" y="32.565"/><use xlink:href="#20" y="34.736"/><use xlink:href="#21" y="36.907"/><use xlink:href="#22" y="39.078"/><use xlink:href="#23" y="41.249"/><use xlink:href="#24" y="43.42"/><use xlink:href="#25" y="45.591"/><use xlink:href="#26" y="47.762"/><use xlink:href="#1" y="49.933"/><use xlink:href="#1" y="52.104"/><use xlink:href="#27" y="56.446"/><use xlink:href="#28" y="58.617"/><text y="62.458" class="c">...completed.</text></svg></svg></g></g></svg></svg>